<svg xmlns="http://www.w3.org/2000/svg" viewBox="0 0 32 32">
  <defs>
    <linearGradient id="bg" x1="0" x2="1" y1="0" y2="1">
      <stop offset="0%" stop-color="#586d85"/>
      <stop offset="100%" stop-color="#2f3d52"/>
    </linearGradient>
  </defs>

  <rect width="32" height="32" rx="7" fill="url(#bg)"/>

  <g fill="#f1f0eb" opacity="0.96">
    <path d="M8 15.5c3.6-2.2 6.8-5 9.6-8.9 2.7 3.4 5.1 6.4 9.4 9.4-3.8 1.3-6.4 4.1-9.5 8.5-3.6-3.7-6.2-6.4-9.5-9z"/>
    <path d="M15.7 15.5c1.3-1.5 2.5-3.1 3.4-5.2 1.7 2.3 3.2 4.3 5.2 6.4-2.1 1.5-3.9 3.3-5.2 5.6-1.2-2.1-2.4-4.1-3.4-6.8z" fill="#e5e2dc" opacity="0.9"/>
    <path d="M12.6 17.1c1.6-.7 3-2.1 4.3-4.6 1.4 2.7 2.8 4.3 4.5 5.1-1.7 1.1-2.9 2.4-4.2 4.1-1.6-1.6-2.9-3.2-4.6-4.6z" fill="#ffffff"/>
  </g>

  <circle cx="16" cy="18.5" r="1.2" fill="#2f3d52" opacity="0.5"/>
</svg>
